M48
METRIC,TZ
FMAT,2
ICI,OFF
T01C.39878
%
T01
G05
X270002Y700024
X700024Y3100070
X999998Y1999996
X999998Y1350010
X999998Y899922
X1206500Y3048000
X1549908Y1350010
X1700022Y3400044
X1750060Y1500124
X1899920Y2806192
X2050034Y1249934
X2150110Y3356356
X2249932Y849884
X2249932Y649986
X2299970Y3206242
X2350008Y2756154
X2400046Y3299968
X2400046Y1486916
X2728722Y2834894
X2750058Y1800098
X2750058Y1050036
X2750058Y800100
X2774950Y1684782
X2849880Y2606294
X2849880Y2456180
X2899918Y1350010
X2949956Y800100
X3003804Y1298194
X3187192Y3369056
X3199892Y2256282
X3199892Y1249934
X3199892Y672338
X3199892Y500126
X3299968Y2706370
X3450082Y800100
X3500120Y2050034
X3649980Y1050036
M30
