*
%LPD*%
%LNSSTOP*%
%FSLAX25Y25*%
%MOIN*%
%AD*%
%ADD14C,0.005906*%
%ADD15C,0.003937*%
%ADD54C,0.004724*%
G54D15*
%SRX1Y1I0.0J0.0*%
G1X46260Y100787D2*
G1X48228Y104823D1*
G1X50197Y101378D2*
G1X52165Y103346D1*
G1X60630Y100591D2*
G75*
G54D14*
G2X55512Y100591I-2559J0D1*
G2X60630Y100591I2559J0D1*
G74*
G1X52165Y103346D2*
G54D15*
G1X56102Y104331D1*
G1X47244Y107283D2*
G1X48228Y110236D1*
G1X48228Y107283D2*
G1X52165Y105315D1*
G1X56102Y104331D2*
G1X59055Y105315D1*
G1X58071Y100591D2*
G1X51181Y100394D1*
G1X52165Y101378D2*
G75*
G2X50197Y101378I-984J0D1*
G2X52165Y101378I984J0D1*
G74*
G1X53150Y101378D2*
G1X51181Y102362D1*
G1X58071Y100591D2*
G1X51181Y102362D1*
G1X54134Y103839D2*
G1X54134Y102362D1*
G1X57087Y105807D2*
G1X54134Y105315D1*
G1X47736Y107283D2*
G1X48228Y107283D1*
G1X49213Y104331D2*
G1X47244Y105315D1*
G1X54134Y102362D2*
G1X53150Y101378D1*
G1X45276Y105315D2*
G1X47244Y107283D1*
G1X54134Y105315D2*
G1X52165Y105315D1*
G1X47244Y105315D2*
G1X45276Y105315D1*
G1X49213Y104331D2*
G1X50197Y101378D1*
G1X48228Y110236D2*
G1X47736Y107283D1*
G1X48819Y100787D2*
G75*
G2X43701Y100787I-2559J0D1*
G2X48819Y100787I2559J0D1*
G74*
G1X60039Y106299D2*
G1X57087Y105807D1*
G1X59055Y105315D2*
G1X60039Y106299D1*
G1X7202Y12691D2*
G1X7688Y12529D1*
G1X7849Y12368D1*
G1X8011Y12044D1*
G1X8011Y11558D1*
G1X7849Y11234D1*
G1X7688Y11072D1*
G1X7364Y10910D1*
G1X6069Y10910D1*
G1X6069Y14310D1*
G1X7202Y14310D1*
G1X7526Y14148D1*
G1X7688Y13987D1*
G1X7849Y13663D1*
G1X7849Y13339D1*
G1X7688Y13015D1*
G1X7526Y12853D1*
G1X7202Y12691D1*
G1X6069Y12691D1*
G1X9954Y10910D2*
G1X9630Y11072D1*
G1X9469Y11234D1*
G1X9307Y11558D1*
G1X9307Y12529D1*
G1X9469Y12853D1*
G1X9630Y13015D1*
G1X9954Y13177D1*
G1X10440Y13177D1*
G1X10764Y13015D1*
G1X10926Y12853D1*
G1X11088Y12529D1*
G1X11088Y11558D1*
G1X10926Y11234D1*
G1X10764Y11072D1*
G1X10440Y10910D1*
G1X9954Y10910D1*
G1X12545Y13177D2*
G1X12545Y10910D1*
G1X12545Y12853D2*
G1X12707Y13015D1*
G1X13030Y13177D1*
G1X13516Y13177D1*
G1X13840Y13015D1*
G1X14002Y12691D1*
G1X14002Y10910D1*
G1X17078Y10910D2*
G1X17078Y14310D1*
G1X17078Y11072D2*
G1X16754Y10910D1*
G1X16107Y10910D1*
G1X15783Y11072D1*
G1X15621Y11234D1*
G1X15459Y11558D1*
G1X15459Y12529D1*
G1X15621Y12853D1*
G1X15783Y13015D1*
G1X16107Y13177D1*
G1X16754Y13177D1*
G1X17078Y13015D1*
G1X19992Y11072D2*
G1X19669Y10910D1*
G1X19021Y10910D1*
G1X18697Y11072D1*
G1X18535Y11396D1*
G1X18535Y12691D1*
G1X18697Y13015D1*
G1X19021Y13177D1*
G1X19669Y13177D1*
G1X19992Y13015D1*
G1X20154Y12691D1*
G1X20154Y12368D1*
G1X18535Y12044D1*
G1X21611Y10910D2*
G1X21611Y13177D1*
G1X21611Y14310D2*
G1X21449Y14148D1*
G1X21611Y13987D1*
G1X21773Y14148D1*
G1X21611Y14310D1*
G1X21611Y13987D1*
G1X27764Y10910D2*
G1X26630Y12529D1*
G1X25821Y10910D2*
G1X25821Y14310D1*
G1X27116Y14310D1*
G1X27440Y14148D1*
G1X27602Y13987D1*
G1X27764Y13663D1*
G1X27764Y13177D1*
G1X27602Y12853D1*
G1X27440Y12691D1*
G1X27116Y12529D1*
G1X25821Y12529D1*
G1X30678Y10910D2*
G1X30678Y12691D1*
G1X30516Y13015D1*
G1X30192Y13177D1*
G1X29545Y13177D1*
G1X29221Y13015D1*
G1X30678Y11072D2*
G1X30354Y10910D1*
G1X29545Y10910D1*
G1X29221Y11072D1*
G1X29059Y11396D1*
G1X29059Y11720D1*
G1X29221Y12044D1*
G1X29545Y12206D1*
G1X30354Y12206D1*
G1X30678Y12368D1*
G1X33754Y10910D2*
G1X33754Y14310D1*
G1X33754Y11072D2*
G1X33430Y10910D1*
G1X32783Y10910D1*
G1X32459Y11072D1*
G1X32297Y11234D1*
G1X32135Y11558D1*
G1X32135Y12529D1*
G1X32297Y12853D1*
G1X32459Y13015D1*
G1X32783Y13177D1*
G1X33430Y13177D1*
G1X33754Y13015D1*
G1X36830Y13177D2*
G1X36830Y10910D1*
G1X35373Y13177D2*
G1X35373Y11396D1*
G1X35535Y11072D1*
G1X35859Y10910D1*
G1X36345Y10910D1*
G1X36669Y11072D1*
G1X36830Y11234D1*
G1X38449Y12206D2*
G1X41040Y12206D1*
G1X44440Y14148D2*
G1X44116Y14310D1*
G1X43630Y14310D1*
G1X43145Y14148D1*
G1X42821Y13825D1*
G1X42659Y13501D1*
G1X42497Y12853D1*
G1X42497Y12368D1*
G1X42659Y11720D1*
G1X42821Y11396D1*
G1X43145Y11072D1*
G1X43630Y10910D1*
G1X43954Y10910D1*
G1X44440Y11072D1*
G1X44602Y11234D1*
G1X44602Y12368D1*
G1X43954Y12368D1*
G1X47516Y10910D2*
G1X47516Y12691D1*
G1X47354Y13015D1*
G1X47030Y13177D1*
G1X46383Y13177D1*
G1X46059Y13015D1*
G1X47516Y11072D2*
G1X47192Y10910D1*
G1X46383Y10910D1*
G1X46059Y11072D1*
G1X45897Y11396D1*
G1X45897Y11720D1*
G1X46059Y12044D1*
G1X46383Y12206D1*
G1X47192Y12206D1*
G1X47516Y12368D1*
G1X49135Y10910D2*
G1X49135Y14310D1*
G1X49135Y13015D2*
G1X49459Y13177D1*
G1X50107Y13177D1*
G1X50430Y13015D1*
G1X50592Y12853D1*
G1X50754Y12529D1*
G1X50754Y11558D1*
G1X50592Y11234D1*
G1X50430Y11072D1*
G1X50107Y10910D1*
G1X49459Y10910D1*
G1X49135Y11072D1*
G1X52211Y10910D2*
G1X52211Y13177D1*
G1X52211Y12529D2*
G1X52373Y12853D1*
G1X52535Y13015D1*
G1X52859Y13177D1*
G1X53183Y13177D1*
G1X54316Y10910D2*
G1X54316Y13177D1*
G1X54316Y14310D2*
G1X54154Y14148D1*
G1X54316Y13987D1*
G1X54478Y14148D1*
G1X54316Y14310D1*
G1X54316Y13987D1*
G1X57230Y11072D2*
G1X56907Y10910D1*
G1X56259Y10910D1*
G1X55935Y11072D1*
G1X55773Y11396D1*
G1X55773Y12691D1*
G1X55935Y13015D1*
G1X56259Y13177D1*
G1X56907Y13177D1*
G1X57230Y13015D1*
G1X57392Y12691D1*
G1X57392Y12368D1*
G1X55773Y12044D1*
G1X59335Y10910D2*
G1X59011Y11072D1*
G1X58849Y11396D1*
G1X58849Y14310D1*
G1X60792Y11072D2*
G1X60792Y10910D1*
G1X60630Y10587D1*
G1X60469Y10425D1*
G1X66297Y13177D2*
G1X66297Y10910D1*
G1X65488Y14472D2*
G1X64678Y12044D1*
G1X66783Y12044D1*
G1X67754Y14310D2*
G1X69859Y14310D1*
G1X68726Y13015D1*
G1X69211Y13015D1*
G1X69535Y12853D1*
G1X69697Y12691D1*
G1X69859Y12368D1*
G1X69859Y11558D1*
G1X69697Y11234D1*
G1X69535Y11072D1*
G1X69211Y10910D1*
G1X68240Y10910D1*
G1X67916Y11072D1*
G1X67754Y11234D1*
G1X71154Y13987D2*
G1X71316Y14148D1*
G1X71640Y14310D1*
G1X72449Y14310D1*
G1X72773Y14148D1*
G1X72935Y13987D1*
G1X73097Y13663D1*
G1X73097Y13339D1*
G1X72935Y12853D1*
G1X70992Y10910D1*
G1X73097Y10910D1*
G1X75688Y12691D2*
G1X76173Y12529D1*
G1X76335Y12368D1*
G1X76497Y12044D1*
G1X76497Y11558D1*
G1X76335Y11234D1*
G1X76173Y11072D1*
G1X75849Y10910D1*
G1X74554Y10910D1*
G1X74554Y14310D1*
G1X75688Y14310D1*
G1X76011Y14148D1*
G1X76173Y13987D1*
G1X76335Y13663D1*
G1X76335Y13339D1*
G1X76173Y13015D1*
G1X76011Y12853D1*
G1X75688Y12691D1*
G1X74554Y12691D1*
G1X78116Y11072D2*
G1X78116Y10910D1*
G1X77954Y10587D1*
G1X77792Y10425D1*
G1X6069Y5437D2*
G1X6069Y8837D1*
G1X7364Y8837D1*
G1X7688Y8675D1*
G1X7849Y8513D1*
G1X8011Y8189D1*
G1X8011Y7703D1*
G1X7849Y7379D1*
G1X7688Y7218D1*
G1X7364Y7056D1*
G1X6069Y7056D1*
G1X11249Y5437D2*
G1X9307Y5437D1*
G1X10278Y5437D2*
G1X10278Y8837D1*
G1X9954Y8351D1*
G1X9630Y8027D1*
G1X9307Y7865D1*
G1X12707Y5437D2*
G1X12707Y8837D1*
G1X13516Y8837D1*
G1X14002Y8675D1*
G1X14326Y8351D1*
G1X14488Y8027D1*
G1X14649Y7379D1*
G1X14649Y6894D1*
G1X14488Y6246D1*
G1X14326Y5922D1*
G1X14002Y5598D1*
G1X13516Y5437D1*
G1X12707Y5437D1*
G1X18049Y5760D2*
G1X17888Y5598D1*
G1X17402Y5437D1*
G1X17078Y5437D1*
G1X16592Y5598D1*
G1X16269Y5922D1*
G1X16107Y6246D1*
G1X15945Y6894D1*
G1X15945Y7379D1*
G1X16107Y8027D1*
G1X16269Y8351D1*
G1X16592Y8675D1*
G1X17078Y8837D1*
G1X17402Y8837D1*
G1X17888Y8675D1*
G1X18049Y8513D1*
G1X19507Y7218D2*
G1X20640Y7218D1*
G1X21126Y5437D2*
G1X19507Y5437D1*
G1X19507Y8837D1*
G1X21126Y8837D1*
G1X25011Y8513D2*
G1X25173Y8675D1*
G1X25497Y8837D1*
G1X26307Y8837D1*
G1X26630Y8675D1*
G1X26792Y8513D1*
G1X26954Y8189D1*
G1X26954Y7865D1*
G1X26792Y7379D1*
G1X24849Y5437D1*
G1X26954Y5437D1*
G1X29059Y8837D2*
G1X29383Y8837D1*
G1X29707Y8675D1*
G1X29869Y8513D1*
G1X30030Y8189D1*
G1X30192Y7541D1*
G1X30192Y6732D1*
G1X30030Y6084D1*
G1X29869Y5760D1*
G1X29707Y5598D1*
G1X29383Y5437D1*
G1X29059Y5437D1*
G1X28735Y5598D1*
G1X28573Y5760D1*
G1X28411Y6084D1*
G1X28249Y6732D1*
G1X28249Y7541D1*
G1X28411Y8189D1*
G1X28573Y8513D1*
G1X28735Y8675D1*
G1X29059Y8837D1*
G1X31488Y8513D2*
G1X31649Y8675D1*
G1X31973Y8837D1*
G1X32783Y8837D1*
G1X33107Y8675D1*
G1X33269Y8513D1*
G1X33430Y8189D1*
G1X33430Y7865D1*
G1X33269Y7379D1*
G1X31326Y5437D1*
G1X33430Y5437D1*
G1X36507Y8837D2*
G1X34888Y8837D1*
G1X34726Y7218D1*
G1X34888Y7379D1*
G1X35211Y7541D1*
G1X36021Y7541D1*
G1X36345Y7379D1*
G1X36507Y7218D1*
G1X36669Y6894D1*
G1X36669Y6084D1*
G1X36507Y5760D1*
G1X36345Y5598D1*
G1X36021Y5437D1*
G1X35211Y5437D1*
G1X34888Y5598D1*
G1X34726Y5760D1*
G1X38126Y6732D2*
G1X40716Y6732D1*
G1X42173Y8513D2*
G1X42335Y8675D1*
G1X42659Y8837D1*
G1X43469Y8837D1*
G1X43792Y8675D1*
G1X43954Y8513D1*
G1X44116Y8189D1*
G1X44116Y7865D1*
G1X43954Y7379D1*
G1X42011Y5437D1*
G1X44116Y5437D1*
G1X46221Y8837D2*
G1X46545Y8837D1*
G1X46869Y8675D1*
G1X47030Y8513D1*
G1X47192Y8189D1*
G1X47354Y7541D1*
G1X47354Y6732D1*
G1X47192Y6084D1*
G1X47030Y5760D1*
G1X46869Y5598D1*
G1X46545Y5437D1*
G1X46221Y5437D1*
G1X45897Y5598D1*
G1X45735Y5760D1*
G1X45573Y6084D1*
G1X45411Y6732D1*
G1X45411Y7541D1*
G1X45573Y8189D1*
G1X45735Y8513D1*
G1X45897Y8675D1*
G1X46221Y8837D1*
G1X48649Y8513D2*
G1X48811Y8675D1*
G1X49135Y8837D1*
G1X49945Y8837D1*
G1X50269Y8675D1*
G1X50430Y8513D1*
G1X50592Y8189D1*
G1X50592Y7865D1*
G1X50430Y7379D1*
G1X48488Y5437D1*
G1X50592Y5437D1*
G1X53507Y8837D2*
G1X52859Y8837D1*
G1X52535Y8675D1*
G1X52373Y8513D1*
G1X52049Y8027D1*
G1X51888Y7379D1*
G1X51888Y6084D1*
G1X52049Y5760D1*
G1X52211Y5598D1*
G1X52535Y5437D1*
G1X53183Y5437D1*
G1X53507Y5598D1*
G1X53669Y5760D1*
G1X53830Y6084D1*
G1X53830Y6894D1*
G1X53669Y7218D1*
G1X53507Y7379D1*
G1X53183Y7541D1*
G1X52535Y7541D1*
G1X52211Y7379D1*
G1X52049Y7218D1*
G1X51888Y6894D1*
G1X147460Y103693D2*
G54D14*
G1X147460Y105943D1*
G1X151397Y104818D2*
G1X147460Y104818D1*
G1X151397Y107255D2*
G1X147460Y107255D1*
G1X147460Y108755D1*
G1X147647Y109130D1*
G1X147835Y109318D1*
G1X148210Y109505D1*
G1X148772Y109505D1*
G1X149147Y109318D1*
G1X149335Y109130D1*
G1X149522Y108755D1*
G1X149522Y107255D1*
G1X148772Y112880D2*
G1X151397Y112880D1*
G1X147272Y111942D2*
G1X150085Y111005D1*
G1X150085Y113442D1*
G1X111542Y35597D2*
G1X109761Y34350D1*
G1X111542Y33460D2*
G1X107802Y33460D1*
G1X107802Y34885D1*
G1X107980Y35241D1*
G1X108158Y35419D1*
G1X108514Y35597D1*
G1X109049Y35597D1*
G1X109405Y35419D1*
G1X109583Y35241D1*
G1X109761Y34885D1*
G1X109761Y33460D1*
G1X111542Y37378D2*
G1X111542Y38091D1*
G1X111364Y38447D1*
G1X111186Y38625D1*
G1X110652Y38981D1*
G1X109939Y39159D1*
G1X108514Y39159D1*
G1X108158Y38981D1*
G1X107980Y38803D1*
G1X107802Y38447D1*
G1X107802Y37734D1*
G1X107980Y37378D1*
G1X108158Y37200D1*
G1X108514Y37022D1*
G1X109405Y37022D1*
G1X109761Y37200D1*
G1X109939Y37378D1*
G1X110117Y37734D1*
G1X110117Y38447D1*
G1X109939Y38803D1*
G1X109761Y38981D1*
G1X109405Y39159D1*
G1X148444Y24559D2*
G1X148444Y26809D1*
G1X152381Y25684D2*
G1X148444Y25684D1*
G1X152381Y28121D2*
G1X148444Y28121D1*
G1X148444Y29621D1*
G1X148632Y29996D1*
G1X148819Y30184D1*
G1X149194Y30371D1*
G1X149756Y30371D1*
G1X150131Y30184D1*
G1X150319Y29996D1*
G1X150506Y29621D1*
G1X150506Y28121D1*
G1X148819Y31871D2*
G1X148632Y32059D1*
G1X148444Y32433D1*
G1X148444Y33371D1*
G1X148632Y33746D1*
G1X148819Y33933D1*
G1X149194Y34121D1*
G1X149569Y34121D1*
G1X150131Y33933D1*
G1X152381Y31684D1*
G1X152381Y34121D1*
G1X50328Y83939D2*
G1X50141Y83751D1*
G1X49578Y83564D1*
G1X49203Y83564D1*
G1X48641Y83751D1*
G1X48266Y84126D1*
G1X48078Y84501D1*
G1X47891Y85251D1*
G1X47891Y85813D1*
G1X48078Y86563D1*
G1X48266Y86938D1*
G1X48641Y87313D1*
G1X49203Y87501D1*
G1X49578Y87501D1*
G1X50141Y87313D1*
G1X50328Y87126D1*
G1X54078Y83564D2*
G1X51828Y83564D1*
G1X52953Y83564D2*
G1X52953Y87501D1*
G1X52578Y86938D1*
G1X52203Y86563D1*
G1X51828Y86376D1*
G1X72835Y137666D2*
G1X72647Y137291D1*
G1X72272Y136916D1*
G1X71710Y136354D1*
G1X71523Y135979D1*
G1X71523Y135604D1*
G1X72460Y135792D2*
G1X72272Y135417D1*
G1X71897Y135042D1*
G1X71148Y134854D1*
G1X69835Y134854D1*
G1X69085Y135042D1*
G1X68710Y135417D1*
G1X68523Y135792D1*
G1X68523Y136542D1*
G1X68710Y136916D1*
G1X69085Y137291D1*
G1X69835Y137479D1*
G1X71148Y137479D1*
G1X71897Y137291D1*
G1X72272Y136916D1*
G1X72460Y136542D1*
G1X72460Y135792D1*
G1X69835Y140854D2*
G1X72460Y140854D1*
G1X68335Y139916D2*
G1X71148Y138979D1*
G1X71148Y141416D1*
G1X12842Y88761D2*
G1X12842Y92698D1*
G1X13780Y92698D1*
G1X14342Y92510D1*
G1X14717Y92135D1*
G1X14904Y91760D1*
G1X15092Y91010D1*
G1X15092Y90448D1*
G1X14904Y89698D1*
G1X14717Y89323D1*
G1X14342Y88948D1*
G1X13780Y88761D1*
G1X12842Y88761D1*
G1X16404Y92698D2*
G1X18841Y92698D1*
G1X17529Y91198D1*
G1X18091Y91198D1*
G1X18466Y91010D1*
G1X18654Y90823D1*
G1X18841Y90448D1*
G1X18841Y89510D1*
G1X18654Y89136D1*
G1X18466Y88948D1*
G1X18091Y88761D1*
G1X16967Y88761D1*
G1X16592Y88948D1*
G1X16404Y89136D1*
G1X82499Y74147D2*
G1X80625Y72835D1*
G1X82499Y71897D2*
G1X78562Y71897D1*
G1X78562Y73397D1*
G1X78750Y73772D1*
G1X78937Y73959D1*
G1X79312Y74147D1*
G1X79875Y74147D1*
G1X80250Y73959D1*
G1X80437Y73772D1*
G1X80625Y73397D1*
G1X80625Y71897D1*
G1X78562Y77522D2*
G1X78562Y76772D1*
G1X78750Y76397D1*
G1X78937Y76209D1*
G1X79500Y75834D1*
G1X80250Y75647D1*
G1X81749Y75647D1*
G1X82124Y75834D1*
G1X82312Y76022D1*
G1X82499Y76397D1*
G1X82499Y77147D1*
G1X82312Y77522D1*
G1X82124Y77709D1*
G1X81749Y77896D1*
G1X80812Y77896D1*
G1X80437Y77709D1*
G1X80250Y77522D1*
G1X80062Y77147D1*
G1X80062Y76397D1*
G1X80250Y76022D1*
G1X80437Y75834D1*
G1X80812Y75647D1*
G1X113517Y80887D2*
G1X112205Y82761D1*
G1X111267Y80887D2*
G1X111267Y84824D1*
G1X112767Y84824D1*
G1X113142Y84636D1*
G1X113330Y84449D1*
G1X113517Y84074D1*
G1X113517Y83511D1*
G1X113330Y83136D1*
G1X113142Y82949D1*
G1X112767Y82761D1*
G1X111267Y82761D1*
G1X116892Y83511D2*
G1X116892Y80887D1*
G1X115954Y85011D2*
G1X115017Y82199D1*
G1X117454Y82199D1*
G1X50525Y59608D2*
G1X50337Y59420D1*
G1X49775Y59233D1*
G1X49400Y59233D1*
G1X48838Y59420D1*
G1X48463Y59795D1*
G1X48275Y60170D1*
G1X48088Y60920D1*
G1X48088Y61483D1*
G1X48275Y62233D1*
G1X48463Y62608D1*
G1X48838Y62983D1*
G1X49400Y63170D1*
G1X49775Y63170D1*
G1X50337Y62983D1*
G1X50525Y62795D1*
G1X52025Y62795D2*
G1X52212Y62983D1*
G1X52587Y63170D1*
G1X53525Y63170D1*
G1X53900Y62983D1*
G1X54087Y62795D1*
G1X54274Y62420D1*
G1X54274Y62045D1*
G1X54087Y61483D1*
G1X51837Y59233D1*
G1X54274Y59233D1*
G1X28590Y88761D2*
G1X28590Y92698D1*
G1X29528Y92698D1*
G1X30090Y92510D1*
G1X30465Y92135D1*
G1X30652Y91760D1*
G1X30840Y91010D1*
G1X30840Y90448D1*
G1X30652Y89698D1*
G1X30465Y89323D1*
G1X30090Y88948D1*
G1X29528Y88761D1*
G1X28590Y88761D1*
G1X34214Y91385D2*
G1X34214Y88761D1*
G1X33277Y92885D2*
G1X32340Y90073D1*
G1X34777Y90073D1*
G1X28965Y103918D2*
G1X27653Y105793D1*
G1X26715Y103918D2*
G1X26715Y107855D1*
G1X28215Y107855D1*
G1X28590Y107668D1*
G1X28778Y107480D1*
G1X28965Y107105D1*
G1X28965Y106543D1*
G1X28778Y106168D1*
G1X28590Y105980D1*
G1X28215Y105793D1*
G1X26715Y105793D1*
G1X32715Y103918D2*
G1X30465Y103918D1*
G1X31590Y103918D2*
G1X31590Y107855D1*
G1X31215Y107293D1*
G1X30840Y106918D1*
G1X30465Y106730D1*
G1X36464Y103918D2*
G1X34214Y103918D1*
G1X35339Y103918D2*
G1X35339Y107855D1*
G1X34964Y107293D1*
G1X34589Y106918D1*
G1X34214Y106730D1*
G1X85171Y50572D2*
G1X83858Y52446D1*
G1X82921Y50572D2*
G1X82921Y54509D1*
G1X84421Y54509D1*
G1X84796Y54321D1*
G1X84983Y54134D1*
G1X85171Y53759D1*
G1X85171Y53196D1*
G1X84983Y52821D1*
G1X84796Y52634D1*
G1X84421Y52446D1*
G1X82921Y52446D1*
G1X86483Y54509D2*
G1X88920Y54509D1*
G1X87608Y53009D1*
G1X88170Y53009D1*
G1X88545Y52821D1*
G1X88733Y52634D1*
G1X88920Y52259D1*
G1X88920Y51321D1*
G1X88733Y50947D1*
G1X88545Y50759D1*
G1X88170Y50572D1*
G1X87045Y50572D1*
G1X86670Y50759D1*
G1X86483Y50947D1*
G1X128956Y64745D2*
G1X127643Y66620D1*
G1X126706Y64745D2*
G1X126706Y68682D1*
G1X128206Y68682D1*
G1X128581Y68494D1*
G1X128768Y68307D1*
G1X128956Y67932D1*
G1X128956Y67369D1*
G1X128768Y66995D1*
G1X128581Y66807D1*
G1X128206Y66620D1*
G1X126706Y66620D1*
G1X130081Y68682D2*
G1X131393Y64745D1*
G1X132705Y68682D1*
G1X133643Y68682D2*
G1X136080Y68682D1*
G1X134768Y67182D1*
G1X135330Y67182D1*
G1X135705Y66995D1*
G1X135892Y66807D1*
G1X136080Y66432D1*
G1X136080Y65495D1*
G1X135892Y65120D1*
G1X135705Y64932D1*
G1X135330Y64745D1*
G1X134205Y64745D1*
G1X133830Y64932D1*
G1X133643Y65120D1*
G1X125019Y139501D2*
G1X123144Y138189D1*
G1X125019Y137252D2*
G1X121082Y137252D1*
G1X121082Y138751D1*
G1X121269Y139126D1*
G1X121457Y139314D1*
G1X121832Y139501D1*
G1X122394Y139501D1*
G1X122769Y139314D1*
G1X122957Y139126D1*
G1X123144Y138751D1*
G1X123144Y137252D1*
G1X125019Y143251D2*
G1X125019Y141001D1*
G1X125019Y142126D2*
G1X121082Y142126D1*
G1X121644Y141751D1*
G1X122019Y141376D1*
G1X122207Y141001D1*
G1X97425Y81477D2*
G1X96112Y83352D1*
G1X95175Y81477D2*
G1X95175Y85414D1*
G1X96675Y85414D1*
G1X97050Y85227D1*
G1X97237Y85039D1*
G1X97425Y84664D1*
G1X97425Y84102D1*
G1X97237Y83727D1*
G1X97050Y83539D1*
G1X96675Y83352D1*
G1X95175Y83352D1*
G1X100987Y85414D2*
G1X99112Y85414D1*
G1X98924Y83539D1*
G1X99112Y83727D1*
G1X99487Y83914D1*
G1X100424Y83914D1*
G1X100799Y83727D1*
G1X100987Y83539D1*
G1X101174Y83164D1*
G1X101174Y82227D1*
G1X100987Y81852D1*
G1X100799Y81665D1*
G1X100424Y81477D1*
G1X99487Y81477D1*
G1X99112Y81665D1*
G1X98924Y81852D1*
G1X50525Y52443D2*
G1X50337Y52255D1*
G1X49775Y52068D1*
G1X49400Y52068D1*
G1X48838Y52255D1*
G1X48463Y52630D1*
G1X48275Y53005D1*
G1X48088Y53755D1*
G1X48088Y54317D1*
G1X48275Y55067D1*
G1X48463Y55442D1*
G1X48838Y55817D1*
G1X49400Y56005D1*
G1X49775Y56005D1*
G1X50337Y55817D1*
G1X50525Y55630D1*
G1X51837Y56005D2*
G1X54274Y56005D1*
G1X52962Y54505D1*
G1X53525Y54505D1*
G1X53900Y54317D1*
G1X54087Y54130D1*
G1X54274Y53755D1*
G1X54274Y52818D1*
G1X54087Y52443D1*
G1X53900Y52255D1*
G1X53525Y52068D1*
G1X52400Y52068D1*
G1X52025Y52255D1*
G1X51837Y52443D1*
G1X99063Y57658D2*
G1X99063Y61595D1*
G1X100000Y61595D1*
G1X100562Y61408D1*
G1X100937Y61033D1*
G1X101125Y60658D1*
G1X101312Y59908D1*
G1X101312Y59345D1*
G1X101125Y58596D1*
G1X100937Y58221D1*
G1X100562Y57846D1*
G1X100000Y57658D1*
G1X99063Y57658D1*
G1X102812Y61220D2*
G1X103000Y61408D1*
G1X103375Y61595D1*
G1X104312Y61595D1*
G1X104687Y61408D1*
G1X104874Y61220D1*
G1X105062Y60845D1*
G1X105062Y60470D1*
G1X104874Y59908D1*
G1X102625Y57658D1*
G1X105062Y57658D1*
G1X147460Y114717D2*
G1X147460Y116967D1*
G1X151397Y115842D2*
G1X147460Y115842D1*
G1X151397Y118279D2*
G1X147460Y118279D1*
G1X147460Y119779D1*
G1X147647Y120154D1*
G1X147835Y120341D1*
G1X148210Y120529D1*
G1X148772Y120529D1*
G1X149147Y120341D1*
G1X149335Y120154D1*
G1X149522Y119779D1*
G1X149522Y118279D1*
G1X147460Y121841D2*
G1X147460Y124278D1*
G1X148960Y122966D1*
G1X148960Y123528D1*
G1X149147Y123903D1*
G1X149335Y124091D1*
G1X149710Y124278D1*
G1X150647Y124278D1*
G1X151022Y124091D1*
G1X151209Y123903D1*
G1X151397Y123528D1*
G1X151397Y122403D1*
G1X151209Y122029D1*
G1X151022Y121841D1*
G1X94685Y139881D2*
G1X94498Y139506D1*
G1X94123Y139131D1*
G1X93560Y138569D1*
G1X93373Y138194D1*
G1X93373Y137819D1*
G1X94310Y138006D2*
G1X94123Y137631D1*
G1X93748Y137256D1*
G1X92998Y137069D1*
G1X91686Y137069D1*
G1X90936Y137256D1*
G1X90561Y137631D1*
G1X90373Y138006D1*
G1X90373Y138756D1*
G1X90561Y139131D1*
G1X90936Y139506D1*
G1X91686Y139693D1*
G1X92998Y139693D1*
G1X93748Y139506D1*
G1X94123Y139131D1*
G1X94310Y138756D1*
G1X94310Y138006D1*
G1X90373Y141006D2*
G1X90373Y143443D1*
G1X91873Y142131D1*
G1X91873Y142693D1*
G1X92061Y143068D1*
G1X92248Y143256D1*
G1X92623Y143443D1*
G1X93560Y143443D1*
G1X93935Y143256D1*
G1X94123Y143068D1*
G1X94310Y142693D1*
G1X94310Y141568D1*
G1X94123Y141193D1*
G1X93935Y141006D1*
G1X148444Y10780D2*
G1X148444Y13030D1*
G1X152381Y11905D2*
G1X148444Y11905D1*
G1X152381Y14342D2*
G1X148444Y14342D1*
G1X148444Y15842D1*
G1X148632Y16217D1*
G1X148819Y16404D1*
G1X149194Y16592D1*
G1X149756Y16592D1*
G1X150131Y16404D1*
G1X150319Y16217D1*
G1X150506Y15842D1*
G1X150506Y14342D1*
G1X152381Y20341D2*
G1X152381Y18091D1*
G1X152381Y19216D2*
G1X148444Y19216D1*
G1X149007Y18841D1*
G1X149382Y18466D1*
G1X149569Y18091D1*
G1X50525Y26143D2*
G1X50337Y25956D1*
G1X49775Y25768D1*
G1X49400Y25768D1*
G1X48838Y25956D1*
G1X48463Y26331D1*
G1X48275Y26706D1*
G1X48088Y27456D1*
G1X48088Y28018D1*
G1X48275Y28768D1*
G1X48463Y29143D1*
G1X48838Y29518D1*
G1X49400Y29705D1*
G1X49775Y29705D1*
G1X50337Y29518D1*
G1X50525Y29330D1*
G1X53900Y28393D2*
G1X53900Y25768D1*
G1X52962Y29893D2*
G1X52025Y27081D1*
G1X54462Y27081D1*
G1X13217Y103918D2*
G1X11905Y105793D1*
G1X10967Y103918D2*
G1X10967Y107855D1*
G1X12467Y107855D1*
G1X12842Y107668D1*
G1X13030Y107480D1*
G1X13217Y107105D1*
G1X13217Y106543D1*
G1X13030Y106168D1*
G1X12842Y105980D1*
G1X12467Y105793D1*
G1X10967Y105793D1*
G1X16967Y103918D2*
G1X14717Y103918D1*
G1X15842Y103918D2*
G1X15842Y107855D1*
G1X15467Y107293D1*
G1X15092Y106918D1*
G1X14717Y106730D1*
G1X19404Y107855D2*
G1X19779Y107855D1*
G1X20154Y107668D1*
G1X20341Y107480D1*
G1X20529Y107105D1*
G1X20716Y106355D1*
G1X20716Y105418D1*
G1X20529Y104668D1*
G1X20341Y104293D1*
G1X20154Y104106D1*
G1X19779Y103918D1*
G1X19404Y103918D1*
G1X19029Y104106D1*
G1X18841Y104293D1*
G1X18654Y104668D1*
G1X18466Y105418D1*
G1X18466Y106355D1*
G1X18654Y107105D1*
G1X18841Y107480D1*
G1X19029Y107668D1*
G1X19404Y107855D1*
G1X20341Y125768D2*
G1X20341Y122956D1*
G1X20154Y122394D1*
G1X19779Y122019D1*
G1X19216Y121831D1*
G1X18841Y121831D1*
G1X24278Y121831D2*
G1X22029Y121831D1*
G1X23153Y121831D2*
G1X23153Y125768D1*
G1X22778Y125206D1*
G1X22403Y124831D1*
G1X22029Y124644D1*
G1X48511Y125768D2*
G1X48511Y122956D1*
G1X48323Y122394D1*
G1X47948Y122019D1*
G1X47386Y121831D1*
G1X47011Y121831D1*
G1X50198Y125393D2*
G1X50385Y125581D1*
G1X50760Y125768D1*
G1X51698Y125768D1*
G1X52073Y125581D1*
G1X52260Y125393D1*
G1X52448Y125019D1*
G1X52448Y124644D1*
G1X52260Y124081D1*
G1X50010Y121831D1*
G1X52448Y121831D1*
G1X131234Y5750D2*
G1X131046Y5562D1*
G1X130484Y5375D1*
G1X130109Y5375D1*
G1X129546Y5562D1*
G1X129171Y5937D1*
G1X128984Y6312D1*
G1X128796Y7062D1*
G1X128796Y7624D1*
G1X128984Y8374D1*
G1X129171Y8749D1*
G1X129546Y9124D1*
G1X130109Y9312D1*
G1X130484Y9312D1*
G1X131046Y9124D1*
G1X131234Y8937D1*
G1X134796Y9312D2*
G1X132921Y9312D1*
G1X132733Y7437D1*
G1X132921Y7624D1*
G1X133296Y7812D1*
G1X134233Y7812D1*
G1X134608Y7624D1*
G1X134796Y7437D1*
G1X134983Y7062D1*
G1X134983Y6125D1*
G1X134796Y5750D1*
G1X134608Y5562D1*
G1X134233Y5375D1*
G1X133296Y5375D1*
G1X132921Y5562D1*
G1X132733Y5750D1*
G1X73032Y117981D2*
G1X72844Y117606D1*
G1X72469Y117231D1*
G1X71907Y116669D1*
G1X71719Y116294D1*
G1X71719Y115919D1*
G1X72657Y116107D2*
G1X72469Y115732D1*
G1X72094Y115357D1*
G1X71344Y115169D1*
G1X70032Y115169D1*
G1X69282Y115357D1*
G1X68907Y115732D1*
G1X68720Y116107D1*
G1X68720Y116856D1*
G1X68907Y117231D1*
G1X69282Y117606D1*
G1X70032Y117794D1*
G1X71344Y117794D1*
G1X72094Y117606D1*
G1X72469Y117231D1*
G1X72657Y116856D1*
G1X72657Y116107D1*
G1X68720Y121356D2*
G1X68720Y119481D1*
G1X70595Y119294D1*
G1X70407Y119481D1*
G1X70220Y119856D1*
G1X70220Y120794D1*
G1X70407Y121168D1*
G1X70595Y121356D1*
G1X70969Y121543D1*
G1X71907Y121543D1*
G1X72282Y121356D1*
G1X72469Y121168D1*
G1X72657Y120794D1*
G1X72657Y119856D1*
G1X72469Y119481D1*
G1X72282Y119294D1*
G1X41751Y70491D2*
G1X39876Y69179D1*
G1X41751Y68241D2*
G1X37814Y68241D1*
G1X37814Y69741D1*
G1X38002Y70116D1*
G1X38189Y70304D1*
G1X38564Y70491D1*
G1X39127Y70491D1*
G1X39502Y70304D1*
G1X39689Y70116D1*
G1X39876Y69741D1*
G1X39876Y68241D1*
G1X37814Y71616D2*
G1X41751Y72928D1*
G1X37814Y74241D1*
G1X41751Y77615D2*
G1X41751Y75366D1*
G1X41751Y76490D2*
G1X37814Y76490D1*
G1X38377Y76115D1*
G1X38752Y75741D1*
G1X38939Y75366D1*
G1X97769Y5493D2*
G1X96457Y7368D1*
G1X95519Y5493D2*
G1X95519Y9430D1*
G1X97019Y9430D1*
G1X97394Y9242D1*
G1X97582Y9055D1*
G1X97769Y8680D1*
G1X97769Y8118D1*
G1X97582Y7743D1*
G1X97394Y7555D1*
G1X97019Y7368D1*
G1X95519Y7368D1*
G1X100019Y7743D2*
G1X99644Y7930D1*
G1X99456Y8118D1*
G1X99269Y8492D1*
G1X99269Y8680D1*
G1X99456Y9055D1*
G1X99644Y9242D1*
G1X100019Y9430D1*
G1X100769Y9430D1*
G1X101144Y9242D1*
G1X101331Y9055D1*
G1X101519Y8680D1*
G1X101519Y8492D1*
G1X101331Y8118D1*
G1X101144Y7930D1*
G1X100769Y7743D1*
G1X100019Y7743D1*
G1X99644Y7555D1*
G1X99456Y7368D1*
G1X99269Y6993D1*
G1X99269Y6243D1*
G1X99456Y5868D1*
G1X99644Y5680D1*
G1X100019Y5493D1*
G1X100769Y5493D1*
G1X101144Y5680D1*
G1X101331Y5868D1*
G1X101519Y6243D1*
G1X101519Y6993D1*
G1X101331Y7368D1*
G1X101144Y7555D1*
G1X100769Y7743D1*
G1X95519Y41516D2*
G1X95519Y45453D1*
G1X96457Y45453D1*
G1X97019Y45266D1*
G1X97394Y44891D1*
G1X97582Y44516D1*
G1X97769Y43766D1*
G1X97769Y43204D1*
G1X97582Y42454D1*
G1X97394Y42079D1*
G1X97019Y41704D1*
G1X96457Y41516D1*
G1X95519Y41516D1*
G1X101519Y41516D2*
G1X99269Y41516D1*
G1X100394Y41516D2*
G1X100394Y45453D1*
G1X100019Y44891D1*
G1X99644Y44516D1*
G1X99269Y44329D1*
G1X114764Y120097D2*
G1X114577Y119723D1*
G1X114202Y119348D1*
G1X113639Y118785D1*
G1X113452Y118410D1*
G1X113452Y118035D1*
G1X114389Y118223D2*
G1X114202Y117848D1*
G1X113827Y117473D1*
G1X113077Y117285D1*
G1X111764Y117285D1*
G1X111014Y117473D1*
G1X110640Y117848D1*
G1X110452Y118223D1*
G1X110452Y118973D1*
G1X110640Y119348D1*
G1X111014Y119723D1*
G1X111764Y119910D1*
G1X113077Y119910D1*
G1X113827Y119723D1*
G1X114202Y119348D1*
G1X114389Y118973D1*
G1X114389Y118223D1*
G1X112139Y122160D2*
G1X111952Y121785D1*
G1X111764Y121597D1*
G1X111389Y121410D1*
G1X111202Y121410D1*
G1X110827Y121597D1*
G1X110640Y121785D1*
G1X110452Y122160D1*
G1X110452Y122910D1*
G1X110640Y123285D1*
G1X110827Y123472D1*
G1X111202Y123660D1*
G1X111389Y123660D1*
G1X111764Y123472D1*
G1X111952Y123285D1*
G1X112139Y122910D1*
G1X112139Y122160D1*
G1X112327Y121785D1*
G1X112514Y121597D1*
G1X112889Y121410D1*
G1X113639Y121410D1*
G1X114014Y121597D1*
G1X114202Y121785D1*
G1X114389Y122160D1*
G1X114389Y122910D1*
G1X114202Y123285D1*
G1X114014Y123472D1*
G1X113639Y123660D1*
G1X112889Y123660D1*
G1X112514Y123472D1*
G1X112327Y123285D1*
G1X112139Y122910D1*
G1X98114Y27934D2*
G1X96801Y29809D1*
G1X95864Y27934D2*
G1X95864Y31871D1*
G1X97364Y31871D1*
G1X97739Y31683D1*
G1X97926Y31496D1*
G1X98114Y31121D1*
G1X98114Y30558D1*
G1X97926Y30184D1*
G1X97739Y29996D1*
G1X97364Y29809D1*
G1X95864Y29809D1*
G1X99613Y31496D2*
G1X99801Y31683D1*
G1X100176Y31871D1*
G1X101113Y31871D1*
G1X101488Y31683D1*
G1X101676Y31496D1*
G1X101863Y31121D1*
G1X101863Y30746D1*
G1X101676Y30184D1*
G1X99426Y27934D1*
G1X101863Y27934D1*
G1X41554Y40964D2*
G1X39680Y39651D1*
G1X41554Y38714D2*
G1X37617Y38714D1*
G1X37617Y40214D1*
G1X37805Y40589D1*
G1X37992Y40776D1*
G1X38367Y40964D1*
G1X38930Y40964D1*
G1X39305Y40776D1*
G1X39492Y40589D1*
G1X39680Y40214D1*
G1X39680Y38714D1*
G1X37617Y42089D2*
G1X41554Y43401D1*
G1X37617Y44713D1*
G1X37992Y45838D2*
G1X37805Y46026D1*
G1X37617Y46400D1*
G1X37617Y47338D1*
G1X37805Y47713D1*
G1X37992Y47900D1*
G1X38367Y48088D1*
G1X38742Y48088D1*
G1X39305Y47900D1*
G1X41554Y45651D1*
G1X41554Y48088D1*
G1X82499Y40682D2*
G1X80625Y39370D1*
G1X82499Y38433D2*
G1X78562Y38433D1*
G1X78562Y39933D1*
G1X78750Y40307D1*
G1X78937Y40495D1*
G1X79312Y40682D1*
G1X79875Y40682D1*
G1X80250Y40495D1*
G1X80437Y40307D1*
G1X80625Y39933D1*
G1X80625Y38433D1*
G1X78562Y41995D2*
G1X78562Y44619D1*
G1X82499Y42932D1*
G1X134449Y98050D2*
G1X134262Y97675D1*
G1X133887Y97300D1*
G1X133324Y96738D1*
G1X133137Y96363D1*
G1X133137Y95988D1*
G1X134074Y96175D2*
G1X133887Y95801D1*
G1X133512Y95426D1*
G1X132762Y95238D1*
G1X131449Y95238D1*
G1X130700Y95426D1*
G1X130325Y95801D1*
G1X130137Y96175D1*
G1X130137Y96925D1*
G1X130325Y97300D1*
G1X130700Y97675D1*
G1X131449Y97863D1*
G1X132762Y97863D1*
G1X133512Y97675D1*
G1X133887Y97300D1*
G1X134074Y96925D1*
G1X134074Y96175D1*
G1X130137Y99175D2*
G1X130137Y101800D1*
G1X134074Y100112D1*
G1X115767Y23031D2*
G1X115392Y23219D1*
G1X115017Y23594D1*
G1X114454Y24156D1*
G1X114079Y24344D1*
G1X113705Y24344D1*
G1X113892Y23406D2*
G1X113517Y23594D1*
G1X113142Y23969D1*
G1X112955Y24719D1*
G1X112955Y26031D1*
G1X113142Y26781D1*
G1X113517Y27156D1*
G1X113892Y27343D1*
G1X114642Y27343D1*
G1X115017Y27156D1*
G1X115392Y26781D1*
G1X115579Y26031D1*
G1X115579Y24719D1*
G1X115392Y23969D1*
G1X115017Y23594D1*
G1X114642Y23406D1*
G1X113892Y23406D1*
G1X117454Y23406D2*
G1X118204Y23406D1*
G1X118579Y23594D1*
G1X118766Y23781D1*
G1X119141Y24344D1*
G1X119329Y25094D1*
G1X119329Y26593D1*
G1X119141Y26968D1*
G1X118954Y27156D1*
G1X118579Y27343D1*
G1X117829Y27343D1*
G1X117454Y27156D1*
G1X117267Y26968D1*
G1X117079Y26593D1*
G1X117079Y25656D1*
G1X117267Y25281D1*
G1X117454Y25094D1*
G1X117829Y24906D1*
G1X118579Y24906D1*
G1X118954Y25094D1*
G1X119141Y25281D1*
G1X119329Y25656D1*
G1X92717Y98296D2*
G1X92529Y97921D1*
G1X92154Y97546D1*
G1X91592Y96984D1*
G1X91404Y96609D1*
G1X91404Y96234D1*
G1X92342Y96422D2*
G1X92154Y96047D1*
G1X91779Y95672D1*
G1X91029Y95484D1*
G1X89717Y95484D1*
G1X88967Y95672D1*
G1X88592Y96047D1*
G1X88405Y96422D1*
G1X88405Y97171D1*
G1X88592Y97546D1*
G1X88967Y97921D1*
G1X89717Y98109D1*
G1X91029Y98109D1*
G1X91779Y97921D1*
G1X92154Y97546D1*
G1X92342Y97171D1*
G1X92342Y96422D1*
G1X88780Y99609D2*
G1X88592Y99796D1*
G1X88405Y100171D1*
G1X88405Y101108D1*
G1X88592Y101483D1*
G1X88780Y101671D1*
G1X89155Y101858D1*
G1X89530Y101858D1*
G1X90092Y101671D1*
G1X92342Y99421D1*
G1X92342Y101858D1*
G1X93996Y119458D2*
G1X93809Y119083D1*
G1X93434Y118708D1*
G1X92871Y118145D1*
G1X92684Y117770D1*
G1X92684Y117395D1*
G1X93621Y117583D2*
G1X93434Y117208D1*
G1X93059Y116833D1*
G1X92309Y116646D1*
G1X90997Y116646D1*
G1X90247Y116833D1*
G1X89872Y117208D1*
G1X89684Y117583D1*
G1X89684Y118333D1*
G1X89872Y118708D1*
G1X90247Y119083D1*
G1X90997Y119270D1*
G1X92309Y119270D1*
G1X93059Y119083D1*
G1X93434Y118708D1*
G1X93621Y118333D1*
G1X93621Y117583D1*
G1X89684Y122645D2*
G1X89684Y121895D1*
G1X89872Y121520D1*
G1X90059Y121332D1*
G1X90622Y120958D1*
G1X91372Y120770D1*
G1X92871Y120770D1*
G1X93246Y120958D1*
G1X93434Y121145D1*
G1X93621Y121520D1*
G1X93621Y122270D1*
G1X93434Y122645D1*
G1X93246Y122832D1*
G1X92871Y123020D1*
G1X91934Y123020D1*
G1X91559Y122832D1*
G1X91372Y122645D1*
G1X91184Y122270D1*
G1X91184Y121520D1*
G1X91372Y121145D1*
G1X91559Y120958D1*
G1X91934Y120770D1*
G1X73032Y98296D2*
G1X72844Y97921D1*
G1X72469Y97546D1*
G1X71907Y96984D1*
G1X71719Y96609D1*
G1X71719Y96234D1*
G1X72657Y96422D2*
G1X72469Y96047D1*
G1X72094Y95672D1*
G1X71344Y95484D1*
G1X70032Y95484D1*
G1X69282Y95672D1*
G1X68907Y96047D1*
G1X68720Y96422D1*
G1X68720Y97171D1*
G1X68907Y97546D1*
G1X69282Y97921D1*
G1X70032Y98109D1*
G1X71344Y98109D1*
G1X72094Y97921D1*
G1X72469Y97546D1*
G1X72657Y97171D1*
G1X72657Y96422D1*
G1X72657Y101858D2*
G1X72657Y99609D1*
G1X72657Y100734D2*
G1X68720Y100734D1*
G1X69282Y100359D1*
G1X69657Y99984D1*
G1X69845Y99609D1*
G1X135039Y112756D2*
G54D54*
G1X140551Y112756D1*
G1X135039Y107244D2*
G1X135039Y112756D1*
G1X140551Y112756D2*
G1X140551Y107244D1*
G1X135039Y107244D1*
G1X113248Y40789D2*
G1X113248Y42577D1*
G1X119035Y40789D2*
G1X119035Y42577D1*
G1X140945Y32283D2*
G1X146457Y32283D1*
G1X140945Y26772D2*
G1X140945Y32283D1*
G1X146457Y32283D2*
G1X146457Y26772D1*
G1X140945Y26772D1*
G1X49956Y81634D2*
G1X52013Y81634D1*
G1X49956Y75846D2*
G1X52013Y75846D1*
G1X74567Y141033D2*
G1X74764Y141033D1*
G1X74567Y135049D2*
G1X74567Y141033D1*
G1X78504Y135049D2*
G1X74567Y135049D1*
G1X79173Y141033D2*
G1X82244Y141033D1*
G1X86654Y141033D2*
G1X86850Y141033D1*
G1X86850Y135049D1*
G1X82913Y135049D1*
G1X82205Y143159D2*
G1X80906Y142215D1*
G1X80906Y144104D1*
G1X82205Y143159D1*
G36*
G1X82205Y143159D2*
G1X80906Y142215D1*
G1X80906Y144104D1*
G1X82205Y143159D1*
G37*
G1X11811Y94646D2*
G1X22382Y94646D1*
G1X22382Y102205D2*
G1X11811Y102205D1*
G1X22382Y94646D2*
G1X22382Y102205D1*
G1X69941Y75353D2*
G1X69941Y73565D1*
G1X75728Y75353D2*
G1X75728Y73565D1*
G1X115067Y79665D2*
G1X113279Y79665D1*
G1X115067Y73878D2*
G1X113279Y73878D1*
G1X50153Y71791D2*
G1X52210Y71791D1*
G1X50153Y66004D2*
G1X52210Y66004D1*
G1X24862Y102205D2*
G1X24862Y94646D1*
G1X35433Y94646D1*
G1X35433Y102205D2*
G1X24862Y102205D1*
G1X32390Y115098D2*
G1X30602Y115098D1*
G1X32390Y109311D2*
G1X30602Y109311D1*
G1X81783Y61949D2*
G1X83571Y61949D1*
G1X81783Y56161D2*
G1X83571Y56161D1*
G1X122008Y57520D2*
G1X123307Y57520D1*
G1X122008Y38937D2*
G1X122008Y57520D1*
G1X126457Y38937D2*
G1X122008Y38937D1*
G1X130236Y57520D2*
G1X132362Y57520D1*
G1X139291Y57520D2*
G1X140591Y57520D1*
G1X140591Y38937D1*
G1X136142Y38937D1*
G1X113248Y140904D2*
G1X113248Y139116D1*
G1X119035Y140904D2*
G1X119035Y139116D1*
G1X97187Y79665D2*
G1X98975Y79665D1*
G1X97187Y73878D2*
G1X98975Y73878D1*
G1X50153Y50138D2*
G1X52210Y50138D1*
G1X50153Y44350D2*
G1X52210Y44350D1*
G1X91791Y70709D2*
G1X91791Y63150D1*
G1X102362Y63150D1*
G1X102362Y70709D2*
G1X91791Y70709D1*
G1X135039Y122756D2*
G1X140551Y122756D1*
G1X135039Y117244D2*
G1X135039Y122756D1*
G1X140551Y122756D2*
G1X140551Y117244D1*
G1X135039Y117244D1*
G1X96220Y141033D2*
G1X96417Y141033D1*
G1X96220Y135049D2*
G1X96220Y141033D1*
G1X100157Y135049D2*
G1X96220Y135049D1*
G1X100827Y141033D2*
G1X103898Y141033D1*
G1X108307Y141033D2*
G1X108504Y141033D1*
G1X108504Y135049D1*
G1X104567Y135049D1*
G1X103858Y143159D2*
G1X102559Y142215D1*
G1X102559Y144104D1*
G1X103858Y143159D1*
G36*
G1X103858Y143159D2*
G1X102559Y142215D1*
G1X102559Y144104D1*
G1X103858Y143159D1*
G37*
G1X140945Y18504D2*
G1X146457Y18504D1*
G1X140945Y12992D2*
G1X140945Y18504D1*
G1X146457Y18504D2*
G1X146457Y12992D1*
G1X140945Y12992D1*
G1X50153Y38327D2*
G1X52210Y38327D1*
G1X50153Y32539D2*
G1X52210Y32539D1*
G1X16642Y115098D2*
G1X14854Y115098D1*
G1X16642Y109311D2*
G1X14854Y109311D1*
G1X16220Y136890D2*
G1X16220Y149134D1*
G1X16220Y130512D2*
G1X10433Y130512D1*
G1X16220Y128268D2*
G1X16220Y130512D1*
G1X27087Y149134D2*
G1X16220Y149134D1*
G1X27087Y146890D2*
G1X27087Y149134D1*
G1X27087Y130512D2*
G1X27087Y140512D1*
G1X27087Y128268D2*
G1X16220Y128268D1*
G1X27087Y128268D2*
G1X27087Y140512D1*
G1X44390Y146890D2*
G1X44390Y149134D1*
G1X44390Y130512D2*
G1X44390Y140512D1*
G1X55256Y149134D2*
G1X44390Y149134D1*
G1X55256Y136890D2*
G1X55256Y149134D1*
G1X55256Y130512D2*
G1X61043Y130512D1*
G1X55256Y128268D2*
G1X44390Y128268D1*
G1X55256Y128268D2*
G1X55256Y130512D1*
G1X132918Y16673D2*
G1X130861Y16673D1*
G1X132918Y10886D2*
G1X130861Y10886D1*
G1X74567Y121348D2*
G1X74764Y121348D1*
G1X74567Y115364D2*
G1X74567Y121348D1*
G1X78504Y115364D2*
G1X74567Y115364D1*
G1X79173Y121348D2*
G1X82244Y121348D1*
G1X86654Y121348D2*
G1X86850Y121348D1*
G1X86850Y115364D1*
G1X82913Y115364D1*
G1X82205Y123474D2*
G1X80906Y122530D1*
G1X80906Y124419D1*
G1X82205Y123474D1*
G36*
G1X82205Y123474D2*
G1X80906Y122530D1*
G1X80906Y124419D1*
G1X82205Y123474D1*
G37*
G1X12362Y82126D2*
G1X30945Y82126D1*
G1X12362Y77677D2*
G1X12362Y82126D1*
G1X12362Y63543D2*
G1X12362Y67992D1*
G1X30945Y82126D2*
G1X30945Y80827D1*
G1X30945Y73898D2*
G1X30945Y71772D1*
G1X30945Y64843D2*
G1X30945Y63543D1*
G1X12362Y63543D1*
G1X99319Y16673D2*
G1X97531Y16673D1*
G1X99319Y10886D2*
G1X97531Y10886D1*
G1X91791Y54961D2*
G1X91791Y47402D1*
G1X102362Y47402D1*
G1X102362Y54961D2*
G1X91791Y54961D1*
G1X115906Y123317D2*
G1X119843Y123317D1*
G1X115906Y117333D2*
G1X115906Y123317D1*
G1X116102Y117333D2*
G1X115906Y117333D1*
G1X123583Y117333D2*
G1X120512Y117333D1*
G1X124252Y123317D2*
G1X128189Y123317D1*
G1X128189Y117333D1*
G1X127992Y117333D1*
G1X121850Y114262D2*
G1X120551Y115207D1*
G1X121850Y116152D1*
G1X121850Y114262D1*
G36*
G1X121850Y114262D2*
G1X120551Y115207D1*
G1X121850Y116152D1*
G1X121850Y114262D1*
G37*
G1X97876Y26516D2*
G1X99664Y26516D1*
G1X97876Y20728D2*
G1X99664Y20728D1*
G1X12362Y50630D2*
G1X30945Y50630D1*
G1X12362Y46181D2*
G1X12362Y50630D1*
G1X12362Y32047D2*
G1X12362Y36496D1*
G1X30945Y50630D2*
G1X30945Y49331D1*
G1X30945Y42402D2*
G1X30945Y40276D1*
G1X30945Y33346D2*
G1X30945Y32047D1*
G1X12362Y32047D1*
G1X69941Y40100D2*
G1X69941Y41888D1*
G1X75728Y40100D2*
G1X75728Y41888D1*
G1X115906Y101417D2*
G1X116102Y101417D1*
G1X115906Y95433D2*
G1X115906Y101417D1*
G1X119843Y95433D2*
G1X115906Y95433D1*
G1X120512Y101417D2*
G1X123583Y101417D1*
G1X127992Y101417D2*
G1X128189Y101417D1*
G1X128189Y95433D1*
G1X124252Y95433D1*
G1X123543Y103543D2*
G1X122244Y102598D1*
G1X122244Y104488D1*
G1X123543Y103543D1*
G36*
G1X123543Y103543D2*
G1X122244Y102598D1*
G1X122244Y104488D1*
G1X123543Y103543D1*
G37*
G1X113150Y21890D2*
G1X119134Y21890D1*
G1X113150Y21693D2*
G1X113150Y21890D1*
G1X113150Y14213D2*
G1X113150Y17283D1*
G1X113150Y9606D2*
G1X113150Y9803D1*
G1X119134Y21890D2*
G1X119134Y17953D1*
G1X119134Y13543D2*
G1X119134Y9606D1*
G1X113150Y9606D1*
G1X111969Y15945D2*
G1X110079Y15945D1*
G1X111024Y17244D1*
G1X111969Y15945D1*
G36*
G1X111969Y15945D2*
G1X110079Y15945D1*
G1X111024Y17244D1*
G1X111969Y15945D1*
G37*
G1X94252Y101663D2*
G1X94449Y101663D1*
G1X94252Y95679D2*
G1X94252Y101663D1*
G1X98189Y95679D2*
G1X94252Y95679D1*
G1X98858Y101663D2*
G1X101929Y101663D1*
G1X106339Y101663D2*
G1X106535Y101663D1*
G1X106535Y95679D1*
G1X102598Y95679D1*
G1X101890Y103789D2*
G1X100591Y102844D1*
G1X100591Y104734D1*
G1X101890Y103789D1*
G36*
G1X101890Y103789D2*
G1X100591Y102844D1*
G1X100591Y104734D1*
G1X101890Y103789D1*
G37*
G1X95728Y123071D2*
G1X95925Y123071D1*
G1X95728Y117087D2*
G1X95728Y123071D1*
G1X99665Y117087D2*
G1X95728Y117087D1*
G1X100335Y123071D2*
G1X103406Y123071D1*
G1X107815Y123071D2*
G1X108012Y123071D1*
G1X108012Y117087D1*
G1X104075Y117087D1*
G1X103366Y125197D2*
G1X102067Y124252D1*
G1X102067Y126142D1*
G1X103366Y125197D1*
G36*
G1X103366Y125197D2*
G1X102067Y124252D1*
G1X102067Y126142D1*
G1X103366Y125197D1*
G37*
G1X74567Y101663D2*
G1X74764Y101663D1*
G1X74567Y95679D2*
G1X74567Y101663D1*
G1X78504Y95679D2*
G1X74567Y95679D1*
G1X79173Y101663D2*
G1X82244Y101663D1*
G1X86654Y101663D2*
G1X86850Y101663D1*
G1X86850Y95679D1*
G1X82913Y95679D1*
G1X82205Y103789D2*
G1X80906Y102844D1*
G1X80906Y104734D1*
G1X82205Y103789D1*
G36*
G1X82205Y103789D2*
G1X80906Y102844D1*
G1X80906Y104734D1*
G1X82205Y103789D1*
G37*
M2*
